<?xml version="1.0" encoding="UTF-8"?>
<svg id="_图层_2" data-name="图层 2" xmlns="http://www.w3.org/2000/svg" viewBox="0 0 68.05 68.05">
  <defs>
    <style>
      .cls-1, .cls-2 {
        fill: #f4c531;
      }

      .cls-3 {
        fill: #036eb8;
      }

      .cls-4 {
        fill: #fff;
      }

      .cls-5 {
        fill: #e83828;
      }

      .cls-6 {
        fill: #3194c5;
      }

      .cls-7 {
        fill: #2c3463;
      }

      .cls-8 {
        fill: #3794cd;
      }

      .cls-9 {
        fill: #2f3064;
      }

      .cls-2 {
        stroke: #fff;
        stroke-miterlimit: 10;
        stroke-width: .25px;
      }
    </style>
  </defs>
  <g id="_蓝色版本" data-name="蓝色版本">
    <rect class="cls-4" width="68.05" height="68.05" rx="10" ry="10"/>
    <path class="cls-5" d="M31.68,34.53h4.94c.15,0,.29,.08,.37,.2l.91,1.44c.18,.29-.03,.67-.37,.67h-6.75c-.34,0-.55-.38-.37-.67l.91-1.44c.08-.13,.22-.2,.37-.2Z"/>
    <path class="cls-3" d="M40.37,26.83c-1.41,2.01-3.75,3.33-6.39,3.33s-4.98-1.32-6.39-3.33h0c-1.16,0-2.1,.94-2.1,2.1v1.37c2.12,2.27,5.14,3.69,8.49,3.69s6.54-1.5,8.67-3.88v-1.01c0-1.26-1.02-2.28-2.28-2.28h0Z"/>
    <g>
      <path class="cls-3" d="M24.68,30.96c-.38,0-.74-.15-1-.41-.55-.55-.55-1.45,0-2l2.08-2.08c.27-.27,.62-.41,1-.41s.73,.15,1,.41c.55,.55,.55,1.45,0,2l-2.08,2.08c-.27,.27-.62,.41-1,.41Z"/>
      <path class="cls-4" d="M26.76,26.42c.27,0,.53,.1,.74,.3,.41,.41,.41,1.07,0,1.47l-2.08,2.08c-.2,.2-.47,.3-.74,.3s-.53-.1-.74-.3h0c-.41-.41-.41-1.07,0-1.47l2.08-2.08c.2-.2,.47-.3,.74-.3m0-.75c-.48,0-.93,.19-1.27,.52l-2.08,2.08c-.7,.7-.7,1.84,0,2.53,.34,.34,.79,.52,1.27,.52s.93-.19,1.27-.52l2.08-2.08c.7-.7,.7-1.84,0-2.53-.34-.34-.79-.52-1.27-.52h0Z"/>
    </g>
    <g>
      <path class="cls-3" d="M43.39,30.79c-.38,0-.73-.15-1-.41l-2.08-2.08c-.55-.55-.55-1.45,0-2,.27-.27,.62-.41,1-.41s.74,.15,1,.41l2.08,2.08c.55,.55,.55,1.45,0,2-.27,.27-.62,.41-1,.41Z"/>
      <path class="cls-4" d="M41.31,26.25c.27,0,.53,.1,.74,.3l2.08,2.08c.41,.41,.41,1.07,0,1.47-.2,.2-.47,.3-.74,.3s-.53-.1-.74-.3l-2.08-2.08c-.41-.41-.41-1.07,0-1.47,.2-.2,.47-.3,.74-.3m0-.75c-.48,0-.93,.19-1.27,.52-.7,.7-.7,1.84,0,2.53l2.08,2.08c.34,.34,.79,.52,1.27,.52s.93-.19,1.27-.52c.7-.7,.7-1.84,0-2.53l-2.08-2.08c-.34-.34-.79-.52-1.27-.52h0Z"/>
    </g>
    <rect class="cls-3" x="31.94" y="8.6" width="4.42" height="4.42" rx="1.39" ry="1.39"/>
    <g>
      <path class="cls-5" d="M33.51,34.77c-.52,0-.97-.39-1.05-.91l-.47-3.27c-.04-.3,.05-.61,.25-.84,.2-.23,.49-.36,.8-.36h2.22c.31,0,.6,.13,.8,.36,.2,.23,.29,.54,.25,.84l-.47,3.27c-.07,.52-.52,.91-1.05,.91h-1.28Z"/>
      <path class="cls-4" d="M35.26,29.76c.42,0,.73,.37,.68,.78l-.47,3.27c-.05,.34-.34,.59-.67,.59-.2,0-.42,0-.64,0s-.44,0-.64,0c-.34,0-.63-.25-.68-.59l-.47-3.27c-.06-.41,.26-.78,.68-.78h2.22m0-.75h-2.22c-.42,0-.81,.18-1.08,.49-.27,.31-.39,.73-.34,1.14l.47,3.27c.1,.7,.71,1.23,1.42,1.23h.64s.33,0,.33,0h.31c.71,0,1.32-.53,1.42-1.23l.47-3.27c.06-.41-.06-.83-.34-1.14-.27-.31-.67-.49-1.08-.49h0Z"/>
    </g>
    <rect class="cls-3" x="26.47" y="10.07" width="4.42" height="4.42" rx="1.39" ry="1.39" transform="translate(-2.3 15.98) rotate(-30)"/>
    <rect class="cls-3" x="37.42" y="10.07" width="4.42" height="4.42" rx="1.39" ry="1.39" transform="translate(11.45 -18.17) rotate(30)"/>
    <path class="cls-3" d="M27.76,17.6c1.41-2.01,3.75-3.33,6.39-3.33s4.98,1.32,6.39,3.33h.7c.77,0,1.4-.63,1.4-1.4v-1.48c0-.4-.17-.78-.46-1.05-2.09-2-4.92-3.23-8.04-3.23s-6.13,1.31-8.23,3.42c-.27,.28-.43,.65-.43,1.03v1.31c0,.77,.63,1.4,1.4,1.4h.88Z"/>
    <path class="cls-1" d="M22.76,18.4c.74,.74,1.01,1.79,.66,2.54-.76,.36-1.8,.09-2.54-.66s-1.01-1.79-.66-2.54c.76-.36,1.8-.09,2.54,.66Z"/>
    <path class="cls-1" d="M22.76,21.87c.74,.74,1.01,1.79,.66,2.54-.76,.36-1.8,.09-2.54-.66s-1.01-1.79-.66-2.54c.76-.36,1.8-.09,2.54,.66Z"/>
    <path class="cls-1" d="M22.76,25.34c.74,.74,1.01,1.79,.66,2.54-.76,.36-1.8,.09-2.54-.66s-1.01-1.79-.66-2.54c.76-.36,1.8-.09,2.54,.66Z"/>
    <path class="cls-1" d="M22.7,18.4c-.74,.74-1.01,1.79-.66,2.54,.76,.36,1.8,.09,2.54-.66s1.01-1.79,.66-2.54c-.76-.36-1.8-.09-2.54,.66Z"/>
    <path class="cls-1" d="M22.7,21.87c-.74,.74-1.01,1.79-.66,2.54,.76,.36,1.8,.09,2.54-.66s1.01-1.79,.66-2.54c-.76-.36-1.8-.09-2.54,.66Z"/>
    <path class="cls-1" d="M22.7,25.34c-.74,.74-1.01,1.79-.66,2.54,.76,.36,1.8,.09,2.54-.66s1.01-1.79,.66-2.54c-.76-.36-1.8-.09-2.54,.66Z"/>
    <path class="cls-1" d="M21.2,11.6h0c-.33,.56-.51,1.21-.51,1.86v3.51h1.02v-3.51c0-.66-.18-1.3-.51-1.86h0Z"/>
    <path class="cls-1" d="M22.64,10.93h0c-.33,.56-.51,1.21-.51,1.86v4.37h1.02v-4.37c0-.66-.18-1.3-.51-1.86h0Z"/>
    <path class="cls-1" d="M24.09,11.6h0c-.33,.56-.51,1.21-.51,1.86v3.51h1.02v-3.51c0-.66-.18-1.3-.51-1.86h0Z"/>
    <path class="cls-1" d="M45.48,18.4c.74,.74,1.01,1.79,.66,2.54-.76,.36-1.8,.09-2.54-.66s-1.01-1.79-.66-2.54c.76-.36,1.8-.09,2.54,.66Z"/>
    <path class="cls-1" d="M45.48,21.87c.74,.74,1.01,1.79,.66,2.54-.76,.36-1.8,.09-2.54-.66s-1.01-1.79-.66-2.54c.76-.36,1.8-.09,2.54,.66Z"/>
    <path class="cls-1" d="M45.48,25.34c.74,.74,1.01,1.79,.66,2.54-.76,.36-1.8,.09-2.54-.66s-1.01-1.79-.66-2.54c.76-.36,1.8-.09,2.54,.66Z"/>
    <path class="cls-1" d="M45.42,18.4c-.74,.74-1.01,1.79-.66,2.54,.76,.36,1.8,.09,2.54-.66s1.01-1.79,.66-2.54c-.76-.36-1.8-.09-2.54,.66Z"/>
    <path class="cls-1" d="M45.42,21.87c-.74,.74-1.01,1.79-.66,2.54,.76,.36,1.8,.09,2.54-.66s1.01-1.79,.66-2.54c-.76-.36-1.8-.09-2.54,.66Z"/>
    <path class="cls-1" d="M45.42,25.34c-.74,.74-1.01,1.79-.66,2.54,.76,.36,1.8,.09,2.54-.66s1.01-1.79,.66-2.54c-.76-.36-1.8-.09-2.54,.66Z"/>
    <path class="cls-1" d="M43.92,11.6h0c-.33,.56-.51,1.21-.51,1.86v3.51h1.02v-3.51c0-.66-.18-1.3-.51-1.86h0Z"/>
    <path class="cls-1" d="M45.37,10.93h0c-.33,.56-.51,1.21-.51,1.86v4.37h1.02v-4.37c0-.66-.18-1.3-.51-1.86h0Z"/>
    <path class="cls-1" d="M46.81,11.6h0c-.33,.56-.51,1.21-.51,1.86v3.51h1.02v-3.51c0-.66-.18-1.3-.51-1.86h0Z"/>
    <path class="cls-5" d="M34.49,15.26l.45,1.4c.02,.05,.07,.09,.12,.09h1.47c.12,0,.18,.16,.08,.23l-1.19,.86s-.06,.09-.05,.14l.45,1.4c.04,.12-.1,.22-.2,.14l-1.19-.86s-.11-.03-.15,0l-1.19,.86c-.1,.07-.24-.03-.2-.14l.45-1.4c.02-.05,0-.11-.05-.14l-1.19-.86c-.1-.07-.05-.23,.08-.23h1.47c.06,0,.11-.04,.12-.09l.45-1.4c.04-.12,.21-.12,.25,0Z"/>
    <rect class="cls-1" x="48.08" y="11.19" width="11.28" height="1.33" rx=".67" ry=".67" transform="translate(-1.14 15.95) rotate(-16.72)"/>
    <path class="cls-1" d="M57.71,10.3c.63-.62,1.25-1.24,1.88-1.86,.09-.09,.21-.12,.33-.1,.88,.15,1.77,.3,2.65,.45,.31,.05,.42,.44,.19,.65l-1.87,1.7c-.08,.07-.19,.11-.29,.1-.89-.1-1.78-.19-2.66-.29-.31-.03-.45-.42-.22-.64Z"/>
    <path class="cls-5" d="M49.24,15.39v8.59c0,2.27-1.05,4.41-2.83,5.8h0c-.85,.64-1.84,1.31-2.99,1.94-1.51,.83-2.96,1.43-4.28,1.86-.24,.08-.16,.44,.09,.41,3.21-.33,5.79-1.04,7.64-1.67,3.56-1.22,6.25-2.13,8.44-4.8,.69-.84,2.59-3.15,2.83-6.36,.17-2.15-.5-3.62,0-6.77,.12-.76,.28-1.42,.42-1.95,.08-.31-.2-.58-.5-.49-2.7,.82-5.39,1.63-8.09,2.45-.44,.13-.74,.54-.74,.99Z"/>
    <g>
      <path class="cls-1" d="M51.84,18.75c-.46,0-.83-.37-.83-.83v-6.13c0-.46,.37-.83,.83-.83s.83,.37,.83,.83v6.13c0,.46-.37,.83-.83,.83Z"/>
      <path class="cls-4" d="M51.84,11.21c.32,0,.58,.26,.58,.58v6.13c0,.32-.26,.58-.58,.58s-.58-.26-.58-.58v-6.13c0-.32,.26-.58,.58-.58m0-.5c-.6,0-1.08,.48-1.08,1.08v6.13c0,.6,.48,1.08,1.08,1.08s1.08-.48,1.08-1.08v-6.13c0-.6-.48-1.08-1.08-1.08h0Z"/>
    </g>
    <path class="cls-2" d="M51.84,18.77h0c.38,0,.69,.31,.69,.69v.88h-1.39v-.88c0-.38,.31-.69,.69-.69Z"/>
    <rect class="cls-1" x="13.67" y="6.22" width="1.33" height="11.28" rx=".67" ry=".67" transform="translate(-1.15 22.17) rotate(-73.28)"/>
    <path class="cls-1" d="M10.34,10.3c-.63-.62-1.25-1.24-1.88-1.86-.09-.09-.21-.12-.33-.1-.88,.15-1.77,.3-2.65,.45-.31,.05-.42,.44-.19,.65l1.87,1.7c.08,.07,.19,.11,.29,.1,.89-.1,1.78-.19,2.66-.29,.31-.03,.45-.42,.22-.64Z"/>
    <path class="cls-5" d="M18.81,15.39v8.59c0,2.27,1.05,4.41,2.83,5.8h0c.85,.64,1.84,1.31,2.99,1.94,1.51,.83,2.96,1.43,4.28,1.86,.24,.08,.16,.44-.09,.41-3.21-.33-5.79-1.04-7.64-1.67-3.56-1.22-6.25-2.13-8.44-4.8-.69-.84-2.59-3.15-2.83-6.36-.17-2.15,.5-3.62,0-6.77-.12-.76-.28-1.42-.42-1.95-.08-.31,.2-.58,.5-.49,2.7,.82,5.39,1.63,8.09,2.45,.44,.13,.74,.54,.74,.99Z"/>
    <g>
      <path class="cls-1" d="M16.21,18.75c-.46,0-.83-.37-.83-.83v-6.13c0-.46,.37-.83,.83-.83s.83,.37,.83,.83v6.13c0,.46-.37,.83-.83,.83Z"/>
      <path class="cls-4" d="M16.21,11.21c.32,0,.58,.26,.58,.58v6.13c0,.32-.26,.58-.58,.58s-.58-.26-.58-.58v-6.13c0-.32,.26-.58,.58-.58m0-.5c-.6,0-1.08,.48-1.08,1.08v6.13c0,.6,.48,1.08,1.08,1.08s1.08-.48,1.08-1.08v-6.13c0-.6-.48-1.08-1.08-1.08h0Z"/>
    </g>
    <path class="cls-2" d="M15.52,18.77h1.39v.88c0,.38-.31,.69-.69,.69h0c-.38,0-.69-.31-.69-.69v-.88h0Z" transform="translate(32.42 39.11) rotate(-180)"/>
    <path class="cls-5" d="M23.44,33.97c-.1-.06-.03-.21,.08-.17,1.02,.34,2.3,.66,3.81,.78,.96,.08,1.83,.06,2.59-.01,.31-.03,.51,.31,.35,.57l-.21,.36c-.22,.37-.65,.58-1.08,.52-.58-.09-1.21-.22-1.87-.42-1.49-.43-2.71-1.04-3.65-1.63Z"/>
    <path class="cls-5" d="M44.89,33.97c.1-.06,.03-.21-.08-.17-1.02,.34-2.3,.66-3.81,.78-.96,.08-1.83,.06-2.59-.01-.31-.03-.51,.31-.35,.57l.21,.36c.22,.37,.65,.58,1.08,.52,.58-.09,1.21-.22,1.87-.42,1.49-.43,2.71-1.04,3.65-1.63Z"/>
    <rect class="cls-3" x="16.91" y="37.66" width="34.22" height="2.41" rx="1.2" ry="1.2"/>
    <rect class="cls-3" x="12.56" y="45.4" width="43.62" height="14.37" rx="3.52" ry="3.52"/>
    <rect class="cls-3" x="10.42" y="41.03" width="47.21" height="3.42" rx="1.71" ry="1.71"/>
    <g>
      <path class="cls-7" d="M34.82,22.33c.19,.02,.36,.03,.53,.04,.04,0,.08-.04,.12-.06,.16-.09,.38,.02,.39,.19,0,.09-.01,.14-.13,.1-.23-.09-.45-.02-.66,.09-.11,.06-.15,.17-.09,.3,.09,.19,.19,.38,.29,.57,.05,.09,.12,.1,.21,.06,.74-.39,1.26-.97,1.46-1.79,.08-.32,.08-.67,.1-1,0-.13,.04-.21,.17-.26,.14-.05,.27-.11,.4-.18,.11-.06,.17-.03,.22,.08,.09,.18,.1,.18,.29,.1,.04-.02,.08-.04,.11-.05,.13-.04,.17-.12,.09-.24-.09-.13-.03-.19,.09-.24,.15-.06,.31-.13,.45-.21,.12-.06,.18-.04,.23,.08,.08,.19,.11,.19,.29,.11,.03-.01,.07-.03,.1-.05,.17-.08,.18-.1,.08-.25-.08-.12-.04-.18,.08-.23,.17-.06,.33-.13,.49-.21,.11-.05,.16-.02,.21,.07,.04,.06,.12,.17,.15,.16,.13-.04,.25-.11,.37-.18,.02,0-.01-.11-.04-.16-.06-.1-.06-.17,.07-.21,.16-.06,.32-.13,.47-.21,.09-.04,.16-.02,.17,.08,.14,.89,.24,1.79-.15,2.65-.24,.52-.64,.9-1.11,1.21-.65,.43-1.4,.61-2.13,.82-.72,.21-1.44,.41-2.12,.74-.68,.34-1.27,.79-1.61,1.5-.05,.1-.09,.21-.14,.33-.04-.05-.06-.07-.07-.1-.21-.64-.65-1.09-1.2-1.45-.51-.34-1.08-.56-1.66-.74-.73-.22-1.46-.42-2.18-.67-.69-.24-1.3-.61-1.75-1.2-.41-.52-.56-1.14-.55-1.78,0-.42,.07-.85,.11-1.27,.01-.13,.08-.15,.19-.1,.15,.07,.29,.13,.44,.19,.12,.04,.15,.11,.08,.21-.08,.13-.05,.2,.09,.24,.04,.01,.08,.03,.11,.05,.13,.07,.22,.05,.27-.09,.05-.13,.13-.13,.23-.09,.16,.07,.32,.14,.49,.21,.1,.04,.13,.11,.07,.21-.09,.16-.08,.19,.09,.26,.04,.02,.09,.03,.13,.06,.12,.06,.2,.04,.24-.09,.05-.14,.12-.17,.26-.09,.15,.08,.31,.14,.47,.2,.11,.04,.13,.1,.07,.2-.1,.17-.09,.2,.1,.28,.04,.02,.08,.03,.11,.05,.12,.07,.2,.04,.25-.09,.07-.18,.09-.18,.27-.1,.12,.05,.24,.11,.36,.15,.13,.04,.17,.13,.16,.26-.02,.5,.02,.99,.24,1.45,.28,.59,.7,1.05,1.28,1.36,.13,.07,.19,.03,.23-.09,.1-.28,.19-.56,.31-.83,.24-.53,.61-.8,1.21-.65,.16,.04,.33,.06,.49,.09,.05,.01,.1,.06,.14,.09-.06,.02-.12,.06-.18,.07-.11,.01-.23,0-.34,0-.01,0-.02,.03-.05,.07Z"/>
      <path class="cls-6" d="M26.45,21.15s.16,1.46,2.1,2.23,4.4,.55,5.7,3.11c0,0,.55-1.81,5.63-3.11h0s1.94-.87,2.14-2.14c0,0,0,2.1-.65,3.04,0,0-1.23,.42-2.27,.58s-3.3,.26-4.89,1.97c0,0-.84-1.59-4.69-1.97h0s-2.1-.39-2.39-.55c0,0-.45-.65-.68-3.17Z"/>
      <path class="cls-8" d="M27.36,24.94s1.26,.32,4.21,.78c0,0,2.01,.45,2.69,1.59,0,0,.58-1.07,2.78-1.59s3.82-.71,4.08-.78c0,0-.45,.87-.61,1,0,0-2.01,0-3.3,.19s-2.14,.91-2.14,.91v.78h-1.62v-.78s-1.16-.87-2.82-.94-2.62-.23-2.62-.23c0,0-.42-.49-.65-.94Z"/>
      <path class="cls-9" d="M35.01,27.31c-.09-.29,.16-.39,.37-.52,.13-.07,.26-.19,.39-.18,.11,0,.22,.15,.32,.24,.15,.13,.3,.26,.44,.39,.16,.15,.14,.28-.06,.39-.27,.16-.54,.31-.81,.46-.32,.18-.65,.36-.96,.54-.28,.16-.55,.17-.83,.01-.6-.34-1.2-.67-1.79-1.01-.21-.12-.22-.29-.03-.45,.21-.18,.42-.37,.63-.55,.03-.03,.11-.05,.15-.03,.18,.09,.36,.2,.54,.3,.1,.06,.15,.14,.14,.25,0,.12,0,.24,0,.36,0,.11,.04,.16,.15,.16,.41,0,.82,0,1.23,0,.04,0,.1-.06,.11-.11,.02-.07,0-.15,0-.28Z"/>
    </g>
    <g>
      <path class="cls-4" d="M18.29,53.83h-2.21l-.47,1.35h-1.24l2.03-5.43h1.6l2.01,5.43h-1.26l-.46-1.35Zm-.34-.99l-.7-2.06h-.09l-.72,2.06h1.52Z"/>
      <path class="cls-4" d="M23,55.26c-.4,0-.76-.04-1.08-.12-.32-.08-.6-.22-.83-.43s-.41-.49-.53-.85c-.12-.36-.19-.83-.19-1.4,0-.52,.06-.96,.18-1.32,.12-.36,.3-.65,.53-.86s.5-.38,.83-.47c.32-.09,.68-.14,1.08-.14,.51,0,.93,.06,1.27,.18v1.03c-.17-.06-.35-.1-.55-.14s-.41-.05-.64-.05c-.25,0-.46,.03-.63,.09-.18,.06-.32,.16-.44,.3-.11,.14-.2,.32-.25,.54-.05,.22-.08,.5-.08,.84,0,.35,.03,.65,.08,.87s.14,.41,.25,.54,.26,.23,.43,.28c.17,.05,.38,.08,.62,.08,.22,0,.44-.02,.65-.05,.21-.03,.41-.09,.62-.16v1.02c-.16,.07-.36,.12-.59,.16s-.47,.06-.74,.06Z"/>
      <path class="cls-4" d="M25.24,49.75h1.93l.9,3.06h.05l.94-3.06h1.88v5.43h-1.17v-4.27h-.05l-1.05,3.25h-1.19l-1.03-3.25h-.05v4.27h-1.16v-5.43Z"/>
      <path class="cls-4" d="M38.35,56.08c-.18-.09-.38-.2-.62-.31-.24-.12-.48-.23-.74-.35-.25-.12-.5-.23-.75-.34-.25-.11-.46-.2-.66-.28-.31,.28-.71,.52-1.21,.73-.5,.21-1.14,.4-1.92,.56l-.42-.96c.77-.12,1.39-.26,1.84-.43,.46-.17,.81-.38,1.05-.61h-2.82v-.91h2.06c-.12-.07-.23-.14-.36-.22-.12-.08-.25-.15-.37-.22s-.24-.14-.35-.2c-.11-.06-.21-.11-.29-.15l.4-.77c.13,.06,.28,.14,.44,.22,.16,.09,.32,.18,.49,.27,.16,.09,.32,.19,.47,.28,.15,.09,.28,.17,.38,.24l-.29,.54h.77c.05-.17,.08-.34,.11-.52s.04-.37,.06-.57c0-.07,.01-.16,.02-.29,0-.12,0-.25,.01-.38,0-.13,0-.26,0-.38,0-.12,0-.21,0-.28l.98,.04c0,.07,0,.17,0,.3,0,.13,0,.27-.01,.41,0,.14-.01,.28-.02,.41,0,.13-.01,.23-.02,.3-.01,.17-.02,.34-.04,.5-.02,.16-.04,.31-.07,.47h2.15v.91h-2.42c.21,.08,.43,.17,.67,.26,.24,.1,.47,.19,.7,.29s.44,.19,.64,.28c.2,.09,.37,.17,.5,.23l-.38,.92Zm-5.2-4.73h-.94v-1.69h2.68l-.15-.74,1.1-.05,.15,.78h2.57v1.71h-.96v-.81h-3.7c.11,.06,.23,.12,.38,.2s.28,.15,.43,.23c.15,.08,.29,.17,.43,.25,.14,.08,.26,.16,.36,.23l-.4,.84c-.1-.07-.23-.16-.38-.25s-.3-.19-.45-.29c-.15-.09-.31-.18-.45-.27-.15-.08-.27-.15-.38-.2l.4-.74h-.69v.8Z"/>
      <path class="cls-4" d="M41.23,54.24c-.16,.03-.29,.06-.41,.09-.12,.03-.23,.05-.34,.07s-.23,.05-.36,.07c-.13,.03-.27,.06-.45,.09l-.08-.91c.2-.03,.43-.06,.68-.11,.26-.05,.56-.12,.91-.21l.05,.9Zm.76-2.74c-.01,.1-.02,.21-.03,.3,0,.1-.02,.19-.03,.28h.37c-.02,.49-.04,.96-.07,1.41-.03,.46-.05,.93-.09,1.41-.01,.16-.03,.29-.07,.4s-.09,.2-.16,.27c-.07,.07-.17,.12-.29,.16-.12,.04-.27,.06-.45,.07l-.49,.03-.21-.8,.52-.04c.14-.01,.23-.05,.27-.11,.04-.07,.07-.17,.08-.33l.09-1.67h-1.54c.05-.44,.09-.89,.13-1.33,.04-.44,.07-.89,.11-1.33l.77,.06c-.03,.31-.05,.61-.07,.9-.02,.29-.04,.58-.07,.86h.35l.17-2.03h-1.39v-.85h2.26c-.03,.33-.05,.66-.07,.98s-.04,.63-.07,.93c.43-.3,.8-.65,1.12-1.04,.32-.4,.58-.83,.77-1.29h.7c.09,.23,.22,.47,.38,.71,.16,.25,.33,.49,.53,.72,.2,.23,.41,.45,.63,.66,.22,.2,.45,.37,.68,.51l-.59,.72c-.13-.1-.26-.21-.38-.33-.12-.11-.24-.23-.36-.35v.63h-2.43v-.59c-.09,.09-.19,.18-.29,.27-.1,.09-.21,.18-.33,.27l-.45-.49Zm4.12,.94c-.08,.37-.18,.75-.28,1.15-.1,.4-.22,.8-.36,1.2h.85v.92h-3.92v-.92h2.27c.16-.44,.29-.87,.39-1.28,.1-.41,.19-.83,.28-1.27l.78,.19Zm-2.91-.12c.04,.1,.09,.25,.15,.45,.06,.2,.11,.4,.17,.62s.1,.43,.14,.63c.04,.2,.07,.35,.09,.46l-.77,.24c-.02-.11-.04-.27-.09-.47-.04-.2-.09-.41-.14-.63-.05-.22-.1-.42-.15-.62-.05-.2-.09-.35-.13-.46l.72-.21Zm1.09-2.48c-.1,.24-.23,.46-.37,.66s-.32,.42-.54,.64h1.85c-.21-.23-.4-.46-.56-.68-.16-.22-.29-.43-.38-.62Zm-.23,4.5c-.06-.38-.12-.72-.18-1.03s-.14-.61-.23-.91l.74-.18c.04,.09,.08,.22,.12,.39s.09,.34,.13,.53c.04,.18,.08,.36,.11,.54,.03,.17,.06,.31,.07,.42l-.76,.24Z"/>
      <path class="cls-4" d="M54.1,54.97v.82h-6.72v-.82h2.9v-.5h-2.13v-.84h2.13v-.45c-.35,0-.68,.02-.99,.03s-.57,.02-.77,.03l-.35,.02-.16-.76c.16-.05,.3-.12,.44-.2,.1-.06,.22-.14,.36-.24,.13-.1,.27-.21,.42-.34h-1.03v-.71h-.64v-1.36h2.67l-.14-.68,1.11-.05,.14,.73h2.63v1.36h-.65v.71h-.92c.22,.18,.45,.37,.69,.57,.23,.2,.44,.4,.61,.58l-.57,.68c-.11-.12-.25-.26-.43-.43-.15,0-.35,0-.61,.01-.25,0-.53,0-.83,.02v.48h2.09v.84h-2.09v.5h2.86Zm-5.61-4.47v.41h4.52v-.41h-4.52Zm2.01,1.22c-.34,.31-.64,.54-.89,.69,.15,0,.32,0,.5-.02,.18,0,.37,0,.56-.02,.19,0,.38,0,.58-.02,.19,0,.38,0,.56-.02-.07-.06-.13-.11-.19-.15-.06-.04-.11-.08-.16-.12l.34-.35h-1.29Z"/>
    </g>
  </g>
</svg>